<?xml version="1.0" standalone="no"?>
<!DOCTYPE svg PUBLIC "-//W3C//DTD SVG 20010904//EN"
 "http://www.w3.org/TR/2001/REC-SVG-20010904/DTD/svg10.dtd">
<svg version="1.0" xmlns="http://www.w3.org/2000/svg"
 width="512.000000pt" height="512.000000pt" viewBox="0 0 512.000000 512.000000"
 preserveAspectRatio="xMidYMid meet">
<metadata>
Created by potrace 1.11, written by Peter Selinger 2001-2013
</metadata>
<g transform="translate(0.000000,512.000000) scale(0.100000,-0.100000)"
fill="#000000" stroke="none">
<path d="M1620 4231 c-492 -286 -905 -527 -917 -536 -56 -40 -53 16 -51 -1144
3 -1062 3 -1070 24 -1097 13 -18 351 -220 930 -556 832 -483 913 -528 954
-528 40 0 74 17 300 148 140 82 541 314 890 517 349 202 648 377 664 388 58
41 56 -8 56 1145 l0 1059 -23 34 c-18 26 -207 140 -932 561 -836 485 -914 528
-955 528 -41 0 -121 -44 -940 -519z m808 -138 l-3 -288 -105 -22 c-203 -42
-356 -109 -508 -222 -81 -60 -196 -176 -247 -248 -17 -24 -34 -43 -38 -43 -4
0 -58 29 -120 63 -62 35 -141 80 -177 99 -187 102 -220 120 -220 128 0 4 134
85 298 178 163 94 479 276 702 406 223 130 408 236 413 236 4 0 6 -129 5 -287z
m825 -31 c293 -169 592 -341 664 -382 73 -41 133 -78 133 -81 0 -6 -51 -36
-358 -213 l-134 -76 -20 27 c-44 60 -207 211 -274 256 -146 96 -285 153 -469
191 l-100 21 -3 289 c-2 259 -1 288 13 282 9 -3 256 -144 548 -314z m-441
-480 c192 -51 349 -141 489 -281 140 -140 230 -298 280 -489 26 -100 36 -292
20 -403 -74 -513 -521 -899 -1041 -899 -482 0 -890 318 -1022 798 -31 112 -31
392 0 504 97 351 339 618 670 738 132 48 216 60 382 56 104 -3 167 -10 222
-24z m1388 -1007 c0 -463 -4 -795 -9 -795 -8 0 -311 166 -448 246 l-42 24 30
81 c71 194 95 415 65 607 -13 84 -54 231 -91 323 -5 13 39 44 217 149 123 73
232 138 243 146 11 7 23 13 28 13 4 1 7 -357 7 -794z m-3124 637 c219 -124
324 -184 324 -186 0 -1 -13 -40 -28 -87 -46 -135 -57 -209 -57 -384 0 -173 9
-228 67 -403 17 -50 29 -94 27 -96 -11 -9 -456 -266 -471 -271 -17 -7 -18 33
-18 749 0 439 4 756 9 756 5 0 71 -35 147 -78z m517 -1441 c47 -61 159 -168
238 -226 137 -101 301 -172 481 -208 l113 -22 3 -287 c1 -181 -1 -288 -7 -288
-6 0 -72 37 -148 81 -76 45 -363 212 -638 371 -574 333 -580 337 -569 348 15
15 468 279 479 279 6 1 28 -21 48 -48z m2222 -95 c131 -74 240 -138 242 -142
1 -5 -203 -128 -455 -273 -251 -146 -554 -322 -674 -393 -119 -70 -221 -128
-227 -128 -8 0 -11 83 -9 287 l3 288 115 23 c197 40 384 128 533 250 69 56
207 199 207 214 0 19 38 1 265 -126z"/>
<path d="M2589 3505 c-67 -22 -140 -103 -194 -218 -74 -156 -121 -340 -190
-742 l-32 -189 -62 -32 c-102 -52 -147 -108 -171 -212 -36 -157 89 -357 189
-301 56 32 90 120 127 332 11 69 21 100 32 105 23 8 226 -14 412 -45 184 -30
171 -16 141 -153 -24 -106 -51 -180 -93 -250 -27 -45 -41 -57 -77 -70 -52 -18
-66 -37 -57 -74 9 -38 42 -50 95 -36 62 16 125 80 166 165 33 67 85 248 100
341 l6 41 61 6 c76 7 167 51 186 90 12 24 11 32 -2 52 -25 38 -52 40 -96 10
-22 -15 -59 -30 -82 -32 l-43 -5 0 283 c0 225 -4 308 -18 397 -46 288 -118
456 -222 517 -53 32 -117 39 -176 20z m128 -129 c119 -101 196 -508 173 -916
-5 -85 -9 -156 -9 -157 -2 -8 -68 0 -241 27 -105 17 -224 30 -264 30 -40 0
-75 2 -77 5 -8 7 67 437 97 560 45 183 108 346 161 413 28 34 74 62 105 62 14
0 39 -11 55 -24z m-588 -1270 c-11 -54 -26 -113 -33 -130 l-14 -31 -16 37
c-32 73 -15 152 44 201 18 15 34 26 35 25 2 -2 -5 -48 -16 -102z"/>
</g>
</svg>
